Lexend Deca Light.ufo
<glyph name="quotedbl" format="2">
  <advance width="381"/>
  <unicode hex="0022"/>
  <note>
quotedbl
</note>
  <outline>
    <contour>
      <point x="50.0" y="442.0" type="line"/>
      <point x="83.0" y="700.0" type="line"/>
      <point x="153.0" y="700.0" type="line"/>
      <point x="81.0" y="442.0" type="line"/>
    </contour>
    <contour>
      <point x="228.0" y="442.0" type="line"/>
      <point x="261.0" y="700.0" type="line"/>
      <point x="331.0" y="700.0" type="line"/>
      <point x="259.0" y="442.0" type="line"/>
    </contour>
  </outline>
</glyph>
<glyph name="numbersign" format="2">
  <advance width="684"/>
  <unicode hex="0023"/>
  <note>
numbersign
</note>
  <outline>
    <contour>
      <point x="172.0" y="0.0" type="line"/>
      <point x="121.0" y="0.0" type="line"/>
      <point x="241.0" y="700.0" type="line"/>
      <point x="290.0" y="700.0" type="line"/>
    </contour>
    <contour>
      <point x="646.0" y="466.0" type="line"/>
      <point x="76.0" y="466.0" type="line"/>
      <point x="76.0" y="512.0" type="line"/>
      <point x="646.0" y="512.0" type="line"/>
    </contour>
    <contour>
      <point x="445.0" y="0.0" type="line"/>
      <point x="394.0" y="0.0" type="line"/>
      <point x="514.0" y="700.0" type="line"/>
      <point x="563.0" y="700.0" type="line"/>
    </contour>
    <contour>
      <point x="609.0" y="200.0" type="line"/>
      <point x="38.0" y="200.0" type="line"/>
      <point x="38.0" y="246.0" type="line"/>
      <point x="609.0" y="246.0" type="line"/>
    </contour>
  </outline>
</glyph>
<glyph name="hyphen" format="2">
  <advance width="394"/>
  <unicode hex="002D"/>
  <note>
hyphen
</note>
  <outline>
    <contour>
      <point x="336.0" y="246.0" type="line"/>
      <point x="58.0" y="246.0" type="line"/>
      <point x="58.0" y="297.0" type="line"/>
      <point x="336.0" y="297.0" type="line"/>
    </contour>
  </outline>
</glyph>
<glyph name="V" format="2">
  <advance width="647"/>
  <unicode hex="0056"/>
  <note>
V
</note>
  <anchor x="320.0" y="0" name="bottom"/>
  <anchor x="320.0" y="700.0" name="top"/>
  <outline>
    <contour>
      <point x="288.0" y="0.0" type="line"/>
      <point x="25.0" y="700.0" type="line"/>
      <point x="81.0" y="700.0" type="line"/>
      <point x="262.0" y="216.0" type="line"/>
      <point x="285.0" y="154.0"/>
      <point x="313.0" y="76.0"/>
      <point x="333.0" y="13.0" type="qcurve"/>
      <point x="306.0" y="13.0" type="line"/>
      <point x="327.0" y="78.0"/>
      <point x="355.0" y="159.0"/>
      <point x="380.0" y="222.0" type="qcurve"/>
      <point x="568.0" y="700.0" type="line"/>
      <point x="622.0" y="700.0" type="line"/>
      <point x="346.0" y="0.0" type="line"/>
    </contour>
  </outline>
</glyph>
<glyph name="grave" format="2">
  <advance width="244"/>
  <unicode hex="0060"/>
  <anchor x="119.0" y="520.0" name="_top"/>
  <outline>
    <contour>
      <point x="214.0" y="618.0" type="line"/>
      <point x="201.0" y="599.0" type="line"/>
      <point x="41.0" y="691.0" type="line"/>
      <point x="78.0" y="738.0" type="line"/>
    </contour>
  </outline>
</glyph>
<glyph name="e" format="2">
  <advance width="546"/>
  <unicode hex="0065"/>
  <note>
e
</note>
  <anchor x="285.0" y="0" name="bottom"/>
  <anchor x="470.0" y="10.0" name="ogonek"/>
  <anchor x="286.0" y="520.0" name="top"/>
  <outline>
    <contour>
      <point x="469.0" y="104.0" type="qcurve"/>
      <point x="495.0" y="67.0" type="line"/>
      <point x="462.0" y="35.0"/>
      <point x="361.0" y="-10.0"/>
      <point x="296.0" y="-10.0" type="qcurve"/>
      <point x="183.0" y="-10.0"/>
      <point x="38.0" y="140.0"/>
      <point x="38.0" y="261.0" type="qcurve"/>
      <point x="38.0" y="378.0"/>
      <point x="178.0" y="531.0"/>
      <point x="289.0" y="531.0" type="qcurve"/>
      <point x="398.0" y="531.0"/>
      <point x="518.0" y="392.0"/>
      <point x="518.0" y="282.0" type="qcurve"/>
      <point x="517.0" y="255.0" type="line"/>
      <point x="75.0" y="255.0" type="line"/>
      <point x="75.0" y="301.0" type="line"/>
      <point x="490.0" y="301.0" type="line"/>
      <point x="468.0" y="283.0" type="line"/>
      <point x="468.0" y="307.0" type="line"/>
      <point x="469.0" y="367.0"/>
      <point x="380.0" y="481.0"/>
      <point x="288.0" y="481.0" type="qcurve"/>
      <point x="203.0" y="481.0"/>
      <point x="91.0" y="370.0"/>
      <point x="91.0" y="264.0" type="qcurve"/>
      <point x="91.0" y="162.0"/>
      <point x="202.0" y="40.0"/>
      <point x="305.0" y="40.0" type="qcurve"/>
      <point x="342.0" y="40.0"/>
      <point x="420.0" y="64.0"/>
    </contour>
  </outline>
</glyph>
<glyph name="n" format="2">
  <advance width="558"/>
  <unicode hex="006E"/>
  <note>
n
</note>
  <anchor x="279.0" y="0" name="bottom"/>
  <anchor x="295.0" y="520.0" name="top"/>
  <outline>
    <contour>
      <point x="315.0" y="531.0" type="qcurve"/>
      <point x="398.0" y="531.0"/>
      <point x="486.0" y="426.0"/>
      <point x="486.0" y="315.0" type="qcurve"/>
      <point x="486.0" y="0.0" type="line"/>
      <point x="436.0" y="0.0" type="line"/>
      <point x="436.0" y="313.0" type="line"/>
      <point x="436.0" y="400.0"/>
      <point x="367.0" y="483.0"/>
      <point x="300.0" y="483.0" type="qcurve"/>
      <point x="223.0" y="483.0"/>
      <point x="123.0" y="383.0"/>
      <point x="123.0" y="318.0" type="qcurve"/>
      <point x="123.0" y="0.0" type="line"/>
      <point x="97.0" y="0.0"/>
      <point x="99.0" y="0.0"/>
      <point x="73.0" y="0.0" type="qcurve"/>
      <point x="73.0" y="520.0" type="line"/>
      <point x="121.0" y="520.0" type="line"/>
      <point x="126.0" y="410.0" type="line"/>
      <point x="120.0" y="410.0" type="line"/>
      <point x="136.0" y="459.0"/>
      <point x="248.0" y="531.0"/>
    </contour>
  </outline>
</glyph>
<glyph name="q" format="2">
  <advance width="610"/>
  <unicode hex="0071"/>
  <note>
q
</note>
  <anchor x="289.0" y="0" name="bottom"/>
  <anchor x="288.0" y="520.0" name="top"/>
  <outline>
    <contour>
      <point x="487.0" y="520.0" type="line"/>
      <point x="537.0" y="520.0" type="line"/>
      <point x="537.0" y="-220.0" type="line"/>
      <point x="487.0" y="-220.0" type="line"/>
      <point x="487.0" y="131.0" type="line"/>
      <point x="501.0" y="149.0" type="line"/>
      <point x="482.0" y="82.0"/>
      <point x="360.0" y="-10.0"/>
      <point x="280.0" y="-10.0" type="qcurve"/>
      <point x="174.0" y="-10.0"/>
      <point x="32.0" y="143.0"/>
      <point x="32.0" y="260.0" type="qcurve"/>
      <point x="32.0" y="378.0"/>
      <point x="177.0" y="531.0"/>
      <point x="280.0" y="531.0" type="qcurve"/>
      <point x="360.0" y="531.0"/>
      <point x="482.0" y="440.0"/>
      <point x="501.0" y="372.0" type="qcurve"/>
      <point x="482.0" y="385.0" type="line"/>
    </contour>
    <contour>
      <point x="85.0" y="261.0" type="qcurve"/>
      <point x="85.0" y="166.0"/>
      <point x="197.0" y="40.0"/>
      <point x="287.0" y="40.0" type="qcurve"/>
      <point x="374.0" y="40.0"/>
      <point x="491.0" y="164.0"/>
      <point x="491.0" y="261.0" type="qcurve"/>
      <point x="491.0" y="357.0"/>
      <point x="375.0" y="481.0"/>
      <point x="287.0" y="481.0" type="qcurve"/>
      <point x="198.0" y="481.0"/>
      <point x="85.0" y="357.0"/>
    </contour>
  </outline>
</glyph>
<glyph name="r" format="2">
  <advance width="365"/>
  <unicode hex="0072"/>
  <note>
r
</note>
  <anchor x="98.0" y="0" name="bottom"/>
  <anchor x="190.0" y="520.0" name="top"/>
  <outline>
    <contour>
      <point x="345.0" y="523.0" type="qcurve"/>
      <point x="330.0" y="465.0" type="line"/>
      <point x="316.0" y="471.0"/>
      <point x="290.0" y="475.0"/>
      <point x="280.0" y="475.0" type="qcurve" smooth="yes"/>
      <point x="200.0" y="475.0"/>
      <point x="123.0" y="370.0"/>
      <point x="123.0" y="302.0" type="qcurve"/>
      <point x="123.0" y="0.0" type="line"/>
      <point x="73.0" y="0.0" type="line"/>
      <point x="73.0" y="520.0" type="line"/>
      <point x="121.0" y="520.0" type="line"/>
      <point x="126.0" y="404.0" type="line"/>
      <point x="119.0" y="404.0" type="line"/>
      <point x="136.0" y="454.0"/>
      <point x="221.0" y="531.0"/>
      <point x="287.0" y="531.0" type="qcurve"/>
      <point x="304.0" y="531.0"/>
      <point x="333.0" y="526.0"/>
    </contour>
  </outline>
</glyph>
<glyph name="w" format="2">
  <advance width="743"/>
  <unicode hex="0077"/>
  <note>
w
</note>
  <anchor x="372.0" y="0" name="bottom"/>
  <anchor x="372.0" y="520.0" name="top"/>
  <outline>
    <contour>
      <point x="680.0" y="520.0" type="line"/>
      <point x="735.0" y="520.0" type="line"/>
      <point x="551.0" y="0.0" type="line"/>
      <point x="532.0" y="0.0" type="line"/>
      <point x="355.0" y="407.0" type="line"/>
      <point x="391.0" y="407.0" type="line"/>
      <point x="214.0" y="0.0" type="line"/>
      <point x="192.0" y="0.0" type="line"/>
      <point x="8.0" y="520.0" type="line"/>
      <point x="66.0" y="520.0" type="line"/>
      <point x="219.0" y="66.0" type="line"/>
      <point x="192.0" y="68.0" type="line"/>
      <point x="358.0" y="442.0" type="line"/>
      <point x="388.0" y="442.0" type="line"/>
      <point x="554.0" y="68.0" type="line"/>
      <point x="522.0" y="66.0" type="line"/>
    </contour>
  </outline>
</glyph>
<glyph name="braceleft" format="2">
  <advance width="405"/>
  <unicode hex="007B"/>
  <note>
braceleft
</note>
  <outline>
    <contour>
      <point x="375.0" y="-154.0" type="qcurve"/>
      <point x="365.0" y="-192.0" type="line"/>
      <point x="283.0" y="-173.0"/>
      <point x="196.0" y="-86.0"/>
      <point x="196.0" y="-7.0" type="qcurve"/>
      <point x="197.0" y="88.0" type="line"/>
      <point x="197.0" y="154.0"/>
      <point x="138.0" y="228.0"/>
      <point x="83.0" y="229.0" type="qcurve"/>
      <point x="50.0" y="229.0" type="line"/>
      <point x="50.0" y="271.0" type="line"/>
      <point x="85.0" y="271.0" type="line"/>
      <point x="140.0" y="272.0"/>
      <point x="197.0" y="345.0"/>
      <point x="197.0" y="412.0" type="qcurve"/>
      <point x="196.0" y="507.0" type="line"/>
      <point x="196.0" y="586.0"/>
      <point x="283.0" y="673.0"/>
      <point x="365.0" y="692.0" type="qcurve"/>
      <point x="375.0" y="654.0" type="line"/>
      <point x="301.0" y="629.0"/>
      <point x="245.0" y="565.0"/>
      <point x="245.0" y="493.0" type="qcurve"/>
      <point x="247.0" y="398.0" type="line"/>
      <point x="247.0" y="340.0"/>
      <point x="200.0" y="263.0"/>
      <point x="153.0" y="249.0" type="qcurve"/>
      <point x="152.0" y="252.0" type="line"/>
      <point x="200.0" y="235.0"/>
      <point x="247.0" y="159.0"/>
      <point x="247.0" y="102.0" type="qcurve"/>
      <point x="245.0" y="7.0" type="line"/>
      <point x="245.0" y="-65.0"/>
      <point x="301.0" y="-129.0"/>
    </contour>
  </outline>
</glyph>
<glyph name="currency" format="2">
  <advance width="559"/>
  <unicode hex="00A4"/>
  <note>
currency
</note>
  <outline>
    <contour>
      <point x="457.0" y="302.0" type="qcurve"/>
      <point x="457.0" y="227.0"/>
      <point x="353.0" y="122.0"/>
      <point x="279.0" y="122.0" type="qcurve"/>
      <point x="205.0" y="122.0"/>
      <point x="101.0" y="227.0"/>
      <point x="101.0" y="302.0" type="qcurve"/>
      <point x="101.0" y="377.0"/>
      <point x="205.0" y="482.0"/>
      <point x="279.0" y="482.0" type="qcurve"/>
      <point x="352.0" y="482.0"/>
      <point x="457.0" y="376.0"/>
    </contour>
    <contour>
      <point x="148.0" y="302.0" type="qcurve"/>
      <point x="148.0" y="243.0"/>
      <point x="221.0" y="168.0"/>
      <point x="279.0" y="168.0" type="qcurve"/>
      <point x="338.0" y="168.0"/>
      <point x="410.0" y="243.0"/>
      <point x="410.0" y="302.0" type="qcurve"/>
      <point x="410.0" y="360.0"/>
      <point x="338.0" y="436.0"/>
      <point x="279.0" y="436.0" type="qcurve"/>
      <point x="221.0" y="436.0"/>
      <point x="148.0" y="360.0"/>
    </contour>
    <contour>
      <point x="148.0" y="393.0" type="line"/>
      <point x="68.0" y="468.0" type="line"/>
      <point x="103.0" y="504.0" type="line"/>
      <point x="184.0" y="428.0" type="line"/>
    </contour>
    <contour>
      <point x="456.0" y="106.0" type="line"/>
      <point x="375.0" y="182.0" type="line"/>
      <point x="411.0" y="217.0" type="line"/>
      <point x="491.0" y="142.0" type="line"/>
    </contour>
    <contour>
      <point x="375.0" y="428.0" type="line"/>
      <point x="456.0" y="504.0" type="line"/>
      <point x="491.0" y="468.0" type="line"/>
      <point x="411.0" y="393.0" type="line"/>
    </contour>
    <contour>
      <point x="68.0" y="142.0" type="line"/>
      <point x="148.0" y="217.0" type="line"/>
      <point x="184.0" y="182.0" type="line"/>
      <point x="103.0" y="106.0" type="line"/>
    </contour>
  </outline>
</glyph>
<glyph name="brokenbar" format="2">
  <advance width="228"/>
  <unicode hex="00A6"/>
  <note>
brokenbar
</note>
  <outline>
    <contour>
      <point x="138.0" y="740.0" type="line"/>
      <point x="138.0" y="341.0" type="line"/>
      <point x="90.0" y="341.0" type="line"/>
      <point x="90.0" y="740.0" type="line"/>
    </contour>
    <contour>
      <point x="138.0" y="198.0" type="line"/>
      <point x="138.0" y="-202.0" type="line"/>
      <point x="90.0" y="-202.0" type="line"/>
      <point x="90.0" y="198.0" type="line"/>
    </contour>
  </outline>
</glyph>
<glyph name="acute" format="2">
  <advance width="269"/>
  <unicode hex="00B4"/>
  <anchor x="144.0" y="520.0" name="_top"/>
  <outline>
    <contour>
      <point x="219.0" y="692.0" type="line"/>
      <point x="58.0" y="600.0" type="line"/>
      <point x="45.0" y="619.0" type="line"/>
      <point x="181.0" y="739.0" type="line"/>
    </contour>
  </outline>
</glyph>
<glyph name="paragraph" format="2">
  <advance width="633"/>
  <unicode hex="00B6"/>
  <note>
paragraph
</note>
  <outline>
    <contour>
      <point x="525.0" y="0.0" type="line"/>
      <point x="475.0" y="0.0" type="line"/>
      <point x="475.0" y="680.0" type="line"/>
      <point x="503.0" y="655.0" type="line"/>
      <point x="302.0" y="655.0" type="line"/>
      <point x="346.0" y="681.0" type="line"/>
      <point x="346.0" y="0.0" type="line"/>
      <point x="296.0" y="0.0" type="line"/>
      <point x="296.0" y="314.0" type="line"/>
      <point x="320.0" y="279.0" type="line"/>
      <point x="256.0" y="279.0" type="line" smooth="yes"/>
      <point x="175.0" y="279.0"/>
      <point x="68.0" y="396.0"/>
      <point x="68.0" y="486.0" type="qcurve" smooth="yes"/>
      <point x="68.0" y="583.0"/>
      <point x="191.0" y="700.0"/>
      <point x="293.0" y="700.0" type="qcurve"/>
      <point x="525.0" y="700.0" type="line"/>
    </contour>
  </outline>
</glyph>
<glyph name="caron" format="2">
  <advance width="362"/>
  <unicode hex="02C7"/>
  <anchor x="180.0" y="520.0" name="_top"/>
  <outline>
    <contour>
      <point x="196.0" y="643.0" type="line"/>
      <point x="166.0" y="643.0" type="line"/>
      <point x="309.0" y="738.0" type="line"/>
      <point x="329.0" y="723.0" type="line"/>
      <point x="214.0" y="610.0" type="line"/>
      <point x="148.0" y="610.0" type="line"/>
      <point x="33.0" y="723.0" type="line"/>
      <point x="53.0" y="738.0" type="line"/>
    </contour>
  </outline>
</glyph>
<glyph name="ringcomb" format="2">
  <advance width="319"/>
  <unicode hex="030A"/>
  <outline>
    <contour>
      <point x="264.0" y="674.0" type="qcurve"/>
      <point x="264.0" y="634.0"/>
      <point x="201.0" y="574.0"/>
      <point x="159.0" y="574.0" type="qcurve"/>
      <point x="118.0" y="574.0"/>
      <point x="55.0" y="634.0"/>
      <point x="55.0" y="674.0" type="qcurve"/>
      <point x="55.0" y="715.0"/>
      <point x="117.0" y="775.0"/>
      <point x="159.0" y="775.0" type="qcurve"/>
      <point x="201.0" y="775.0"/>
      <point x="264.0" y="715.0"/>
    </contour>
    <contour>
      <point x="95.0" y="674.0" type="qcurve"/>
      <point x="95.0" y="649.0"/>
      <point x="133.0" y="613.0"/>
      <point x="159.0" y="613.0" type="qcurve"/>
      <point x="186.0" y="613.0"/>
      <point x="224.0" y="649.0"/>
      <point x="224.0" y="674.0" type="qcurve"/>
      <point x="224.0" y="702.0"/>
      <point x="186.0" y="736.0"/>
      <point x="159.0" y="736.0" type="qcurve"/>
      <point x="131.0" y="736.0"/>
      <point x="95.0" y="701.0"/>
    </contour>
  </outline>
</glyph>
<glyph name="hungarumlautcomb" format="2">
  <unicode hex="030B"/>
  <outline>
    <contour>
      <point x="192.0" y="692.0" type="line"/>
      <point x="31.0" y="600.0" type="line"/>
      <point x="17.0" y="619.0" type="line"/>
      <point x="154.0" y="739.0" type="line"/>
    </contour>
    <contour>
      <point x="358.0" y="692.0" type="line"/>
      <point x="197.0" y="600.0" type="line"/>
      <point x="183.0" y="619.0" type="line"/>
      <point x="320.0" y="739.0" type="line"/>
    </contour>
  </outline>
</glyph>
<glyph name="quoteleft" format="2">
  <advance width="238"/>
  <unicode hex="2018"/>
  <note>
quoteleft
</note>
  <outline>
    <contour>
      <point x="131.0" y="486.0" type="qcurve"/>
      <point x="99.0" y="486.0"/>
      <point x="65.0" y="523.0"/>
      <point x="65.0" y="557.0" type="qcurve" smooth="yes"/>
      <point x="65.0" y="606.0"/>
      <point x="112.0" y="676.0"/>
      <point x="165.0" y="707.0" type="qcurve"/>
      <point x="183.0" y="686.0" type="line"/>
      <point x="150.0" y="666.0"/>
      <point x="114.0" y="622.0"/>
      <point x="114.0" y="598.0" type="qcurve" smooth="yes"/>
      <point x="114.0" y="588.0"/>
      <point x="128.0" y="575.0"/>
      <point x="148.0" y="559.0" type="qcurve" smooth="yes"/>
      <point x="157.0" y="552.0"/>
      <point x="170.0" y="532.0"/>
      <point x="170.0" y="521.0" type="qcurve"/>
      <point x="170.0" y="505.0"/>
      <point x="149.0" y="486.0"/>
    </contour>
  </outline>
</glyph>
<glyph name="perthousand" format="2">
  <advance width="1196"/>
  <unicode hex="2030"/>
  <note>
perthousand
</note>
  <outline>
    <contour>
      <point x="354.0" y="518.0" type="qcurve"/>
      <point x="354.0" y="438.0"/>
      <point x="266.0" y="329.0"/>
      <point x="200.0" y="329.0" type="qcurve"/>
      <point x="132.0" y="329.0"/>
      <point x="47.0" y="436.0"/>
      <point x="47.0" y="518.0" type="qcurve"/>
      <point x="47.0" y="601.0"/>
      <point x="133.0" y="709.0"/>
      <point x="201.0" y="709.0" type="qcurve"/>
      <point x="269.0" y="709.0"/>
      <point x="354.0" y="601.0"/>
    </contour>
    <contour>
      <point x="92.0" y="518.0" type="qcurve"/>
      <point x="92.0" y="449.0"/>
      <point x="149.0" y="369.0"/>
      <point x="201.0" y="369.0" type="qcurve"/>
      <point x="252.0" y="369.0"/>
      <point x="309.0" y="448.0"/>
      <point x="309.0" y="518.0" type="qcurve"/>
      <point x="309.0" y="589.0"/>
      <point x="252.0" y="669.0"/>
      <point x="200.0" y="669.0" type="qcurve"/>
      <point x="150.0" y="669.0"/>
      <point x="92.0" y="587.0"/>
    </contour>
    <contour>
      <point x="796.0" y="180.0" type="qcurve"/>
      <point x="796.0" y="100.0"/>
      <point x="709.0" y="-9.0"/>
      <point x="643.0" y="-9.0" type="qcurve"/>
      <point x="576.0" y="-9.0"/>
      <point x="489.0" y="99.0"/>
      <point x="489.0" y="180.0" type="qcurve"/>
      <point x="489.0" y="263.0"/>
      <point x="575.0" y="371.0"/>
      <point x="643.0" y="371.0" type="qcurve"/>
      <point x="711.0" y="371.0"/>
      <point x="796.0" y="263.0"/>
    </contour>
    <contour>
      <point x="534.0" y="180.0" type="qcurve"/>
      <point x="534.0" y="112.0"/>
      <point x="591.0" y="31.0"/>
      <point x="643.0" y="31.0" type="qcurve"/>
      <point x="693.0" y="31.0"/>
      <point x="751.0" y="112.0"/>
      <point x="751.0" y="180.0" type="qcurve"/>
      <point x="751.0" y="249.0"/>
      <point x="693.0" y="331.0"/>
      <point x="643.0" y="331.0" type="qcurve"/>
      <point x="591.0" y="331.0"/>
      <point x="534.0" y="250.0"/>
    </contour>
    <contour>
      <point x="1146.0" y="180.0" type="qcurve"/>
      <point x="1146.0" y="100.0"/>
      <point x="1059.0" y="-9.0"/>
      <point x="993.0" y="-9.0" type="qcurve"/>
      <point x="926.0" y="-9.0"/>
      <point x="839.0" y="99.0"/>
      <point x="839.0" y="180.0" type="qcurve"/>
      <point x="839.0" y="263.0"/>
      <point x="925.0" y="371.0"/>
      <point x="993.0" y="371.0" type="qcurve"/>
      <point x="1061.0" y="371.0"/>
      <point x="1146.0" y="263.0"/>
    </contour>
    <contour>
      <point x="884.0" y="180.0" type="qcurve"/>
      <point x="884.0" y="112.0"/>
      <point x="941.0" y="31.0"/>
      <point x="993.0" y="31.0" type="qcurve"/>
      <point x="1043.0" y="31.0"/>
      <point x="1101.0" y="112.0"/>
      <point x="1101.0" y="180.0" type="qcurve"/>
      <point x="1101.0" y="249.0"/>
      <point x="1043.0" y="331.0"/>
      <point x="993.0" y="331.0" type="qcurve"/>
      <point x="941.0" y="331.0"/>
      <point x="884.0" y="250.0"/>
    </contour>
    <component base="fraction" xOffset="125"/>
  </outline>
</glyph>
<glyph name="lira" format="2">
  <advance width="610"/>
  <unicode hex="20A4"/>
  <outline>
    <contour>
      <point x="245.0" y="224.0" type="qcurve"/>
      <point x="245.0" y="180.0"/>
      <point x="223.0" y="94.0"/>
      <point x="187.0" y="56.0" type="qcurve"/>
      <point x="142.0" y="77.0" type="line"/>
      <point x="164.0" y="89.0"/>
      <point x="195.0" y="159.0"/>
      <point x="195.0" y="201.0" type="qcurve"/>
      <point x="195.0" y="229.0"/>
      <point x="183.0" y="292.0"/>
      <point x="163.0" y="352.0" type="qcurve" smooth="yes"/>
      <point x="144.0" y="412.0"/>
      <point x="134.0" y="471.0"/>
      <point x="134.0" y="497.0" type="qcurve"/>
      <point x="134.0" y="588.0"/>
      <point x="246.0" y="700.0"/>
      <point x="340.0" y="700.0" type="qcurve"/>
      <point x="402.0" y="700.0"/>
      <point x="493.0" y="656.0"/>
      <point x="516.0" y="616.0" type="qcurve"/>
      <point x="473.0" y="583.0" type="line"/>
      <point x="438.0" y="620.0"/>
      <point x="379.0" y="647.0"/>
      <point x="340.0" y="647.0" type="qcurve"/>
      <point x="271.0" y="647.0"/>
      <point x="184.0" y="562.0"/>
      <point x="184.0" y="496.0" type="qcurve"/>
      <point x="184.0" y="473.0"/>
      <point x="195.0" y="414.0"/>
      <point x="215.0" y="353.0" type="qcurve" smooth="yes"/>
      <point x="234.0" y="297.0"/>
      <point x="245.0" y="244.0"/>
    </contour>
    <contour>
      <point x="440.0" y="-10.0" type="qcurve"/>
      <point x="422.0" y="-10.0"/>
      <point x="369.0" y="-2.0"/>
      <point x="313.0" y="15.0" type="qcurve" smooth="yes"/>
      <point x="261.0" y="31.0"/>
      <point x="216.0" y="40.0"/>
      <point x="201.0" y="40.0" type="qcurve"/>
      <point x="173.0" y="40.0"/>
      <point x="109.0" y="20.0"/>
      <point x="76.0" y="7.0" type="qcurve"/>
      <point x="52.0" y="51.0" type="line"/>
      <point x="87.0" y="68.0"/>
      <point x="169.0" y="91.0"/>
      <point x="217.0" y="91.0" type="qcurve"/>
      <point x="238.0" y="91.0"/>
      <point x="287.0" y="79.0"/>
      <point x="334.0" y="63.0" type="qcurve" smooth="yes"/>
      <point x="380.0" y="47.0"/>
      <point x="423.0" y="41.0"/>
      <point x="440.0" y="41.0" type="qcurve"/>
      <point x="464.0" y="41.0"/>
      <point x="512.0" y="60.0"/>
      <point x="538.0" y="76.0" type="qcurve"/>
      <point x="571.0" y="33.0" type="line"/>
      <point x="543.0" y="13.0"/>
      <point x="476.0" y="-10.0"/>
    </contour>
    <contour>
      <point x="442.0" y="220.0" type="line"/>
      <point x="54.0" y="220.0" type="line"/>
      <point x="54.0" y="268.0" type="line"/>
      <point x="442.0" y="268.0" type="line"/>
    </contour>
    <contour>
      <point x="442.0" y="343.0" type="line"/>
      <point x="54.0" y="343.0" type="line"/>
      <point x="54.0" y="391.0" type="line"/>
      <point x="442.0" y="391.0" type="line"/>
    </contour>
  </outline>
</glyph>
<glyph name="won" format="2">
  <advance width="967"/>
  <unicode hex="20A9"/>
  <anchor x="484.0" y="0" name="bottom"/>
  <anchor x="484.0" y="700.0" name="top"/>
  <outline>
    <contour>
      <point x="169.0" y="328.0" type="line"/>
      <point x="56.0" y="328.0" type="line"/>
      <point x="56.0" y="376.0" type="line"/>
      <point x="162.0" y="376.0" type="line"/>
      <point x="186.0" y="374.0" type="line"/>
      <point x="778.0" y="374.0" type="line"/>
      <point x="807.0" y="376.0" type="line"/>
      <point x="917.0" y="376.0" type="line"/>
      <point x="917.0" y="328.0" type="line"/>
      <point x="802.0" y="328.0" type="line"/>
      <point x="778.0" y="330.0" type="line"/>
      <point x="195.0" y="330.0" type="line"/>
    </contour>
    <component base="W" xOffset="25"/>
  </outline>
</glyph>
<glyph name="rupeeIndian" format="2">
  <advance width="561"/>
  <unicode hex="20B9"/>
  <outline>
    <contour>
      <point x="337.0" y="650.0" type="line"/>
      <point x="337.0" y="669.0" type="line"/>
      <point x="394.0" y="622.0"/>
      <point x="432.0" y="538.0"/>
      <point x="432.0" y="489.0" type="qcurve"/>
      <point x="432.0" y="399.0"/>
      <point x="316.0" y="288.0"/>
      <point x="227.0" y="288.0" type="qcurve"/>
      <point x="203.0" y="288.0" type="line"/>
      <point x="140.0" y="328.0" type="line"/>
      <point x="140.0" y="338.0" type="line"/>
      <point x="233.0" y="338.0" type="line"/>
      <point x="297.0" y="338.0"/>
      <point x="379.0" y="422.0"/>
      <point x="379.0" y="487.0" type="qcurve"/>
      <point x="379.0" y="558.0"/>
      <point x="286.0" y="650.0"/>
      <point x="214.0" y="650.0" type="qcurve"/>
      <point x="90.0" y="650.0" type="line"/>
      <point x="90.0" y="700.0" type="line"/>
      <point x="528.0" y="700.0" type="line"/>
      <point x="528.0" y="650.0" type="line"/>
    </contour>
    <contour>
      <point x="140.0" y="328.0" type="line"/>
      <point x="207.0" y="319.0" type="line"/>
      <point x="448.0" y="0.0" type="line"/>
      <point x="390.0" y="0.0" type="line"/>
    </contour>
    <component base="strokeshortcomb" xOffset="213" yOffset="191"/>
  </outline>
</glyph>
<glyph name="manat" format="2">
  <advance width="757"/>
  <unicode hex="20BC"/>
  <anchor x="385.0" y="694.0" name="bottom"/>
  <anchor x="102.0" y="684.0" name="ogonek"/>
  <anchor x="385.0" y="-6.0" name="top"/>
  <anchor x="243.0" y="-14.0" name="topright"/>
  <outline>
    <contour>
      <point x="403.0" y="801.0" type="line"/>
      <point x="403.0" y="254.0" type="line"/>
      <point x="353.0" y="254.0" type="line"/>
      <point x="353.0" y="801.0" type="line"/>
    </contour>
    <component base="U" xScale="-1" yScale="-1" xOffset="755" yOffset="694"/>
  </outline>
</glyph>
<glyph name="emptyset" format="2">
  <advance width="621"/>
  <unicode hex="2205"/>
  <note>
emptyset
</note>
  <anchor x="305.0" y="0" name="bottom"/>
  <anchor x="305.0" y="256.0" name="center"/>
  <anchor x="547.0" y="10.0" name="ogonek"/>
  <anchor x="305.0" y="513.0" name="top"/>
  <anchor x="319.0" y="531.0" name="topright"/>
  <outline>
    <contour>
      <point x="80.0" y="3.0" type="line"/>
      <point x="43.0" y="40.0" type="line"/>
      <point x="540.0" y="522.0" type="line"/>
      <point x="574.0" y="485.0" type="line"/>
    </contour>
    <component base="o"/>
  </outline>
</glyph>
<glyph name="bulletoperator" format="2">
  <advance width="244"/>
  <unicode hex="2219"/>
  <note>
bulletoperator
</note>
  <outline>
    <contour>
      <point x="164.0" y="301.0" type="qcurve" smooth="yes"/>
      <point x="164.0" y="284.0"/>
      <point x="139.74647887323943" y="259.0"/>
      <point x="123.0" y="259.0" type="qcurve" smooth="yes"/>
      <point x="105.32876712328768" y="259.0"/>
      <point x="80.0" y="284.0"/>
      <point x="80.0" y="301.0" type="qcurve" smooth="yes"/>
      <point x="80.0" y="318.0"/>
      <point x="105.32876712328768" y="343.0"/>
      <point x="123.0" y="343.0" type="qcurve" smooth="yes"/>
      <point x="139.74647887323943" y="343.0"/>
      <point x="164.0" y="318.0"/>
    </contour>
  </outline>
</glyph>
<glyph name="infinity" format="2">
  <advance width="867"/>
  <unicode hex="221E"/>
  <outline>
    <contour>
      <point x="213.0" y="47.0" type="qcurve" smooth="yes"/>
      <point x="138.0" y="47.0"/>
      <point x="45.0" y="152.0"/>
      <point x="45.0" y="242.0" type="qcurve" smooth="yes"/>
      <point x="45.0" y="331.0"/>
      <point x="140.0" y="437.0"/>
      <point x="215.0" y="437.0" type="qcurve" smooth="yes"/>
      <point x="261.0" y="437.0"/>
      <point x="331.0" y="403.0"/>
      <point x="379.0" y="353.0" type="qcurve"/>
      <point x="517.0" y="177.0" type="line" smooth="yes"/>
      <point x="553.0" y="131.0"/>
      <point x="611.0408163265306" y="93.0"/>
      <point x="645.0" y="93.0" type="qcurve" smooth="yes"/>
      <point x="703.0" y="93.0"/>
      <point x="774.0" y="173.0"/>
      <point x="774.0" y="242.0" type="qcurve" smooth="yes"/>
      <point x="774.0" y="310.0"/>
      <point x="701.0" y="391.0"/>
      <point x="645.0" y="391.0" type="qcurve" smooth="yes"/>
      <point x="617.9902912621359" y="391.0"/>
      <point x="566.3382346895113" y="364.3382346895114"/>
      <point x="538.0" y="336.0" type="qcurve"/>
      <point x="371.0" y="130.0" type="line" smooth="yes"/>
      <point x="330.9094534595813" y="80.54699049505237"/>
      <point x="258.0" y="47.0"/>
    </contour>
    <contour>
      <point x="93.0" y="242.0" type="qcurve" smooth="yes"/>
      <point x="93.0" y="173.0"/>
      <point x="164.0" y="93.0"/>
      <point x="222.0" y="93.0" type="qcurve" smooth="yes"/>
      <point x="250.10204081632654" y="93.0"/>
      <point x="295.4429046941449" y="117.42300843322147"/>
      <point x="324.0" y="147.0" type="qcurve"/>
      <point x="488.0" y="348.0" type="line" smooth="yes"/>
      <point x="531.7968954909904" y="401.67790240054313"/>
      <point x="606.0" y="437.0"/>
      <point x="652.0" y="437.0" type="qcurve" smooth="yes"/>
      <point x="727.0" y="437.0"/>
      <point x="822.0" y="331.0"/>
      <point x="822.0" y="242.0" type="qcurve" smooth="yes"/>
      <point x="822.0" y="152.0"/>
      <point x="729.0" y="47.0"/>
      <point x="654.0" y="47.0" type="qcurve" smooth="yes"/>
      <point x="609.0" y="47.0"/>
      <point x="539.0" y="81.0"/>
      <point x="496.0" y="125.0" type="qcurve"/>
      <point x="354.0" y="306.0" type="line" smooth="yes"/>
      <point x="321.81863888997685" y="347.01990395009994"/>
      <point x="255.8640776699029" y="391.0"/>
      <point x="221.0" y="391.0" type="qcurve" smooth="yes"/>
      <point x="165.0" y="391.0"/>
      <point x="93.0" y="311.0"/>
    </contour>
  </outline>
</glyph>
<glyph name="integral" format="2">
  <advance width="553"/>
  <unicode hex="222B"/>
  <note>
integral
</note>
  <outline>
    <contour>
      <point x="111.0" y="-127.0" type="qcurve" smooth="yes"/>
      <point x="88.0" y="-127.0"/>
      <point x="30.0" y="-103.0"/>
      <point x="0.0" y="-81.0" type="qcurve"/>
      <point x="27.0" y="-37.0" type="line"/>
      <point x="57.0" y="-62.0"/>
      <point x="90.84848484848484" y="-76.0"/>
      <point x="113.0" y="-76.0" type="qcurve" smooth="yes"/>
      <point x="150.0810810810811" y="-76.0"/>
      <point x="199.98781636416882" y="-0.0753170215018315"/>
      <point x="211.0" y="68.0" type="qcurve"/>
      <point x="292.0" y="547.0" type="line" smooth="yes"/>
      <point x="308.73623125539615" y="645.9710465596884"/>
      <point x="382.6818181818182" y="745.0"/>
      <point x="444.0" y="745.0" type="qcurve" smooth="yes"/>
      <point x="482.0" y="745.0"/>
      <point x="540.0" y="728.0"/>
      <point x="561.0" y="710.0" type="qcurve"/>
      <point x="544.0" y="665.0" type="line"/>
      <point x="520.9558840169229" y="680.3627439887181"/>
      <point x="466.62068965517244" y="694.0"/>
      <point x="445.0" y="694.0" type="qcurve" smooth="yes"/>
      <point x="406.71999999999997" y="694.0"/>
      <point x="358.0139351595353" y="622.0836109572119"/>
      <point x="346.0" y="550.0" type="qcurve"/>
      <point x="266.0" y="71.0" type="line" smooth="yes"/>
      <point x="249.49027758456086" y="-27.851962962441846"/>
      <point x="174.2122905027933" y="-127.0"/>
    </contour>
  </outline>
</glyph>
<glyph name="greaterequal" format="2">
  <advance width="627"/>
  <unicode hex="2265"/>
  <note>
greaterequal
</note>
  <outline>
    <contour>
      <point x="554.0" y="0.0" type="line"/>
      <point x="103.0" y="0.0" type="line"/>
      <point x="103.0" y="48.0" type="line"/>
      <point x="554.0" y="48.0" type="line"/>
    </contour>
    <contour>
      <point x="111.0" y="469.0" type="line"/>
      <point x="127.0" y="509.0" type="line"/>
      <point x="554.0" y="355.0" type="line"/>
      <point x="554.0" y="304.0" type="line"/>
      <point x="124.0" y="159.0" type="line"/>
      <point x="113.0" y="200.0" type="line"/>
      <point x="529.0" y="341.0" type="line"/>
      <point x="529.0" y="318.0" type="line"/>
    </contour>
  </outline>
</glyph>
<glyph name="gravecomb.case" format="2">
  <anchor x="127.0" y="520.0" name="_top"/>
  <anchor x="140.0" y="740.0" name="top"/>
  <outline>
    <contour>
      <point x="223.0" y="621.0" type="line"/>
      <point x="209.0" y="602.0" type="line"/>
      <point x="48.0" y="694.0" type="line"/>
      <point x="86.0" y="741.0" type="line"/>
    </contour>
  </outline>
</glyph>
<glyph name="ring.case" format="2">
  <advance width="336"/>
  <anchor x="164.0" y="628.0" name="_top"/>
  <outline>
    <contour>
      <point x="278.0" y="835.0" type="qcurve"/>
      <point x="278.0" y="793.0"/>
      <point x="212.0" y="730.0"/>
      <point x="168.0" y="730.0" type="qcurve"/>
      <point x="125.0" y="730.0"/>
      <point x="59.0" y="793.0"/>
      <point x="59.0" y="835.0" type="qcurve"/>
      <point x="59.0" y="878.0"/>
      <point x="124.0" y="941.0"/>
      <point x="168.0" y="941.0" type="qcurve"/>
      <point x="212.0" y="941.0"/>
      <point x="278.0" y="878.0"/>
    </contour>
    <contour>
      <point x="99.0" y="835.0" type="qcurve"/>
      <point x="99.0" y="808.0"/>
      <point x="140.0" y="769.0"/>
      <point x="168.0" y="769.0" type="qcurve"/>
      <point x="197.0" y="769.0"/>
      <point x="238.0" y="808.0"/>
      <point x="238.0" y="835.0" type="qcurve"/>
      <point x="238.0" y="865.0"/>
      <point x="197.0" y="902.0"/>
      <point x="168.0" y="902.0" type="qcurve"/>
      <point x="138.0" y="902.0"/>
      <point x="99.0" y="864.0"/>
    </contour>
  </outline>
</glyph>
<glyph name="two.dnom" format="2">
  <advance width="346"/>
  <outline>
    <contour>
      <point x="292.0" y="0.0" type="line"/>
      <point x="71.0" y="0.0" type="line"/>
      <point x="63.0" y="55.0" type="line"/>
      <point x="156.0" y="148.0" type="line" smooth="yes"/>
      <point x="162.0" y="154.0"/>
      <point x="194.0" y="185.0"/>
      <point x="202.0" y="194.0" type="qcurve" smooth="yes"/>
      <point x="224.0" y="218.0"/>
      <point x="243.0" y="251.0"/>
      <point x="243.0" y="267.0" type="qcurve"/>
      <point x="243.0" y="292.0"/>
      <point x="210.0" y="321.0"/>
      <point x="183.0" y="321.0" type="qcurve"/>
      <point x="153.0" y="321.0"/>
      <point x="105.0" y="289.0"/>
      <point x="82.0" y="251.0" type="qcurve"/>
      <point x="51.0" y="273.0" type="line"/>
      <point x="75.0" y="313.0"/>
      <point x="141.0" y="361.0"/>
      <point x="179.0" y="361.0" type="qcurve"/>
      <point x="228.0" y="361.0"/>
      <point x="286.0" y="307.0"/>
      <point x="286.0" y="265.0" type="qcurve"/>
      <point x="286.0" y="241.0"/>
      <point x="256.0" y="188.0"/>
      <point x="190.0" y="123.0" type="qcurve"/>
      <point x="94.0" y="28.0" type="line"/>
      <point x="94.0" y="40.0" type="line"/>
      <point x="292.0" y="40.0" type="line"/>
    </contour>
  </outline>
</glyph>
